# xmcd
#
# Track frame offsets: 
#        150
#        11807
#        25365
#        39195
#        50140
#        62253
#        74278
#        88113
#        99873
#        113161
#        126813
#        138403
#        149958
#        161458
#        173586
#        186769
#        198699
#        210146
#        222144
#        233196
#        245199
#        255421
#        266079
#        276839
#        288376
#        298751
#        311245
#        321802
#        332582
#
# Disc length: 4571 seconds
#
# Revision: 1
# Processed by: cddbd v1.5.1PL2 Copyright (c) Steve Scherf et al.
# Submitted via: ExactAudioCopy v0.95b3
#
DISCID=bc11d91d
DTITLE=Robert Johnson - An Introduction to Robert Johnson
DYEAR=2004
DGENRE=Blues
TTITLE0=Kindhearted Woman Blues
TTITLE1=I Believe I'll Dust My Broom
TTITLE2=Sweet Home Chicago
TTITLE3=Rambling On My Mind
TTITLE4=When You Got a Good Friend
TTITLE5=Come On In My Kitchen
TTITLE6=Terraplane Blues
TTITLE7=Phonograph Blues
TTITLE8=32-20 Blues
TTITLE9=They're Red Hot
TTITLE10=Dead Shrimp Blues
TTITLE11=Cross Road Blues
TTITLE12=Walking Blues
TTITLE13=Last Fair Deal Gone Down
TTITLE14=Preaching Blues (Up Jumped the Devil)
TTITLE15=If I Had Possession Over Judgement Day
TTITLE16=Sones in My Pass Way
TTITLE17=I'm a Steady Rollin' Man
TTITLE18=From Four till Late
TTITLE19=Hellhound on My Trail
TTITLE20=Little Queen of Spades
TTITLE21=Malted Milk
TTITLE22=Drunken Hearted Man
TTITLE23=Me and the Devil Blues
TTITLE24=Stop Breakin' Down Blues
TTITLE25=Traveling Riverside Blues
TTITLE26=Honeymoon Blues
TTITLE27=Love in Vain
TTITLE28=Milkcow's Calf Blues
EXTD=YEAR: 2004
EXTT0=
EXTT1=
EXTT2=
EXTT3=
EXTT4=
EXTT5=
EXTT6=
EXTT7=
EXTT8=
EXTT9=
EXTT10=
EXTT11=
EXTT12=
EXTT13=
EXTT14=
EXTT15=
EXTT16=
EXTT17=
EXTT18=
EXTT19=
EXTT20=
EXTT21=
EXTT22=
EXTT23=
EXTT24=
EXTT25=
EXTT26=
EXTT27=
EXTT28=
PLAYORDER=
